<?xml version="1.0" encoding="utf-8"?>
<!-- Generator: Adobe Illustrator 28.0.0, SVG Export Plug-In . SVG Version: 6.00 Build 0)  -->
<svg version="1.1" id="Layer_1" xmlns="http://www.w3.org/2000/svg" xmlns:xlink="http://www.w3.org/1999/xlink" x="0px" y="0px"
	 viewBox="0 0 800 800" style="enable-background:new 0 0 800 800;" xml:space="preserve">
<style type="text/css">
	.st0{fill:#FFFFFF;}
</style>
<path class="st0" d="M400,0C179.1,0,0,179.1,0,400c0,220.9,179.1,400,400,400c220.9,0,400-179.1,400-400C800,179.1,620.9,0,400,0z
	 M427.2,577.1c0,6.3-3.4,12-8.9,15c-2.5,1.4-5.3,2.1-8.1,2.1c-3.2,0-6.5-0.9-9.3-2.8l-153.4-99.6h-56.7c-9.4,0-17.1-7.6-17.1-17.1
	V325.2c0-9.4,7.6-17.1,17.1-17.1h56.7l153.4-99.6c5.2-3.4,11.9-3.7,17.4-0.7c5.5,3,8.9,8.7,8.9,15V577.1z M622,469.5
	c-2.8,2.8-6.5,4.3-10.3,4.3c-3.7,0-7.4-1.4-10.3-4.3l-49-49l-49,49c-2.8,2.8-6.5,4.3-10.3,4.3c-3.7,0-7.4-1.4-10.3-4.3
	c-5.7-5.7-5.7-14.9,0-20.5l49-49l-49-49c-5.7-5.7-5.7-14.9,0-20.5c5.7-5.7,14.9-5.7,20.5,0l49,49l49-49c5.7-5.7,14.9-5.7,20.5,0
	c5.7,5.7,5.7,14.9,0,20.5l-49,49l49,49C627.7,454.7,627.7,463.8,622,469.5z"/>
</svg>
