<?xml version="1.0" encoding="utf-8"?>
<!-- Generator: Adobe Illustrator 28.0.0, SVG Export Plug-In . SVG Version: 6.00 Build 0)  -->
<svg version="1.1" id="Layer_1" xmlns="http://www.w3.org/2000/svg" xmlns:xlink="http://www.w3.org/1999/xlink" x="0px" y="0px"
	 viewBox="0 0 800 800" style="enable-background:new 0 0 800 800;" xml:space="preserve">
<style type="text/css">
	.st0{fill:#FFFFFF;}
</style>
<path class="st0" d="M400,0C179.1,0,0,179.1,0,400c0,220.9,179.1,400,400,400c220.9,0,400-179.1,400-400C800,179.1,620.9,0,400,0z
	 M408.3,571.2c0,6.3-3.4,12-8.9,15c-2.5,1.4-5.3,2.1-8.1,2.1c-3.2,0-6.5-0.9-9.3-2.8l-153.4-99.6h-56.7c-9.4,0-17.1-7.6-17.1-17.1
	V319.3c0-9.4,7.6-17.1,17.1-17.1h56.7L382,202.6c5.2-3.4,11.9-3.7,17.4-0.7c5.5,3,8.9,8.7,8.9,15V571.2z M455.8,514.8
	c-4.8,0-9.3-2.9-11.2-7.6c-2.4-6.2,0.7-13.1,6.8-15.5c29.5-11.4,50.1-50.3,50.1-94.4c0-40-16.6-75.5-42.4-90.6
	c-5.7-3.3-7.6-10.7-4.3-16.4c3.3-5.7,10.7-7.6,16.4-4.3c32.9,19.3,54.2,63,54.2,111.3c0,54.6-26.3,101.5-65.3,116.7
	C458.7,514.5,457.3,514.8,455.8,514.8z M487.1,564.7c-4.8,0-9.3-2.9-11.2-7.6c-2.4-6.2,0.7-13.1,6.8-15.5
	c45.9-17.8,78-77.6,78-145.4c0-61.3-25.8-116-65.7-139.4c-5.7-3.3-7.6-10.7-4.3-16.4c3.3-5.7,10.7-7.6,16.4-4.3
	c47.1,27.6,77.6,90.4,77.6,160.1c0,77.4-38.3,146.4-93.2,167.7C490,564.4,488.5,564.7,487.1,564.7z M523.6,611.4
	c-1.4,0.6-2.9,0.8-4.4,0.8c-4.8,0-9.4-2.9-11.3-7.7c-2.4-6.2,0.7-13.2,6.9-15.6C577.4,564.6,621,485,621,395.4
	c0-80.8-34.8-153.5-88.8-185.1c-5.8-3.4-7.7-10.8-4.3-16.5c3.4-5.8,10.8-7.7,16.5-4.3c61.2,35.8,100.7,116.7,100.7,205.9
	C645.2,494.8,595.2,583.6,523.6,611.4z"/>
</svg>
